<svg clip-rule="evenodd" fill-rule="evenodd" stroke-linejoin="round" stroke-miterlimit="2" viewBox="0 0 200 44" xmlns="http://www.w3.org/2000/svg"><g fill="#fff" fill-rule="nonzero"><path d="m18.247 44.312c6.85 0 12.806-3.752 15.962-9.291l-3.276-1.846c-2.442 4.407-7.206 7.325-12.686 7.325-8.04 0-14.532-6.432-14.532-14.532s6.492-14.533 14.532-14.533c5.48 0 10.244 2.919 12.686 7.326l3.276-1.846c-3.156-5.539-9.112-9.291-15.962-9.291-10.125 0-18.344 8.219-18.344 18.344s8.219 18.344 18.344 18.344z"/><path d="m51.243 44.312c6.849 0 12.388-5.539 12.388-12.388 0-6.85-5.539-12.389-12.388-12.389s-12.388 5.539-12.388 12.389c0 6.849 5.539 12.388 12.388 12.388zm0-3.693c-4.824 0-8.696-3.871-8.696-8.695 0-4.825 3.872-8.696 8.696-8.696 4.765 0 8.696 3.871 8.696 8.696 0 4.824-3.931 8.695-8.696 8.695z"/><path d="m90.076 0v23.109c-2.264-2.204-5.301-3.574-8.696-3.574-6.849 0-12.388 5.539-12.388 12.389 0 6.849 5.539 12.388 12.388 12.388 3.395 0 6.432-1.37 8.696-3.573v3.097h3.692v-43.836h-3.692zm-8.696 40.619c-4.824 0-8.696-3.871-8.696-8.695 0-4.825 3.872-8.696 8.696-8.696 4.765 0 8.696 3.871 8.696 8.696 0 4.824-3.931 8.695-8.696 8.695z"/><path d="m125.573 31.686c-.179-6.85-5.599-12.151-12.388-12.151-6.85 0-12.389 5.539-12.389 12.389 0 6.849 5.539 12.388 12.389 12.388 5.658 0 10.363-3.752 11.912-8.874h-3.931c-1.311 3.097-4.408 5.181-7.981 5.181-4.705 0-8.458-3.573-8.696-8.159h21.025zm-12.388-8.458c3.812 0 7.028 2.442 8.159 5.896h-16.378c1.191-3.454 4.407-5.896 8.219-5.896z"/><path d="m143.322 23.585v-3.573h-6.373v-10.363h-3.693v10.363h-3.99v3.573h3.99v13.997c0 3.752 3.157 6.73 6.85 6.73 1.191 0 2.501-.357 3.156-.774v-2.799h-2.74c-1.905 0-3.573-1.43-3.573-3.634v-13.52z"/><path d="m157.757 40.024 9.053-10.066c5.48-6.075 7.088-8.457 6.909-12.567-.179-6.015-4.765-9.767-10.542-9.827-6.194-.06-11.138 4.229-11.078 10.602h4.169c-.059-4.229 2.919-6.85 6.73-6.79 3.633.059 6.611 2.263 6.611 6.67 0 2.502-.893 4.229-5.539 9.411l-14.949 16.379h25.73v-3.812z"/><path d="m193.649 23.943c2.561-1.489 4.169-4.229 4.169-7.445 0-5.003-3.99-8.874-9.291-8.874s-9.351 3.871-9.351 8.874c0 3.216 1.668 5.896 4.229 7.445-3.752 1.727-6.254 5.301-6.254 9.589 0 6.015 4.944 10.78 11.317 10.78 6.492 0 11.435-4.765 11.435-10.78 0-4.288-2.501-7.862-6.254-9.589zm-5.122-12.686c3.216 0 5.777 2.561 5.777 5.837 0 3.216-2.561 5.717-5.777 5.717-3.276 0-5.837-2.501-5.837-5.717 0-3.276 2.561-5.837 5.837-5.837zm-.059 29.66c-4.169 0-7.505-3.454-7.505-7.623 0-4.229 3.336-7.564 7.505-7.564 4.228 0 7.564 3.335 7.564 7.564 0 4.169-3.336 7.623-7.564 7.623z"/></g></svg>